<?xml version="1.0" encoding="UTF-8"?>
<!-- Created with Inkscape (http://www.inkscape.org/) -->
<svg viewBox="0 0 14.787 14.788" xmlns="http://www.w3.org/2000/svg">
 <g transform="translate(-356.98 -144.46)">
  <g transform="matrix(.35278 0 0 -.35278 370.2 150.5)">
   <path d="m0 0-0.858-1.643 0.037-0.302c0.149-1.246 0.149-2.515-5e-3 -3.768l-0.036-0.305 0.86-1.644 2.085-1.042 0.236-0.635-1.625-3.921-0.615-0.281-2.213 0.736-1.77-0.555-0.19-0.241c-0.776-0.993-1.674-1.891-2.661-2.668l-0.241-0.187-0.555-1.77 0.736-2.211-0.281-0.615-3.921-1.625-0.634 0.236-1.043 2.083-1.643 0.86-0.302-0.036c-1.244-0.15-2.512-0.15-3.77 4e-3l-0.302 0.036-1.645-0.86-1.042-2.087-0.634-0.236-3.922 1.623-0.281 0.616 0.737 2.212-0.556 1.77-0.24 0.189c-0.996 0.782-1.894 1.677-2.668 2.664l-0.188 0.241-1.768 0.555-2.21-0.738-0.615 0.28-1.626 3.922 0.236 0.634 1.8 0.902 0.322 0.215 0.821 1.571-0.036 0.301c-0.149 1.247-0.149 2.516 4e-3 3.769l0.036 0.305-0.859 1.644-2.086 1.042-0.238 0.635 1.626 3.921 0.615 0.281 2.212-0.736 1.771 0.554 0.189 0.242c0.779 0.995 1.675 1.891 2.662 2.667l0.24 0.19 0.553 1.769-0.734 2.208 0.281 0.615 3.922 1.625 0.634-0.237 1.042-2.083 1.643-0.859 0.302 0.036c1.247 0.15 2.515 0.15 3.768-4e-3l0.304-0.036 1.645 0.861 1.045 2.087 0.634 0.237 3.921-1.625 0.281-0.616-0.736-2.212 0.553-1.771 0.241-0.189c0.993-0.779 1.891-1.674 2.668-2.663l0.187-0.242 1.77-0.554 2.211 0.736 0.615-0.281 1.625-3.921-0.236-0.635zm3.657-0.372 0.777 2.085-2.217 5.35-2.023 0.924-2.343-0.781-0.585 0.184c-0.762 0.935-1.624 1.796-2.566 2.561l-0.183 0.59 0.781 2.345-0.924 2.023-5.351 2.217-2.083-0.779-1.106-2.21-0.545-0.285c-1.209 0.125-2.426 0.127-3.626 3e-3l-0.544 0.284-1.105 2.206-2.083 0.781-5.353-2.217-0.923-2.023 0.781-2.341-0.186-0.587c-0.936-0.762-1.797-1.624-2.561-2.566l-0.588-0.183-2.342 0.78-2.024-0.923-2.217-5.353 0.777-2.085 2.211-1.107 0.285-0.544c-0.126-1.206-0.126-2.424-5e-3 -3.626l-0.282-0.545-2.207-1.104-0.777-2.085 2.218-5.351 2.023-0.924 2.34 0.779 0.586-0.184c0.761-0.935 1.623-1.795 2.566-2.561l0.183-0.585-0.781-2.345 0.925-2.023 5.351-2.217 2.086 0.778 1.104 2.209 0.545 0.286c1.208-0.126 2.425-0.126 3.627-3e-3l0.543-0.285 1.104-2.207 2.083-0.776 5.351 2.217 0.924 2.023-0.779 2.341 0.183 0.585c0.938 0.764 1.798 1.626 2.562 2.566l0.585 0.183 2.345-0.781 2.023 0.924 2.217 5.353-0.777 2.085-2.21 1.107-0.285 0.542c0.125 1.207 0.125 2.423 4e-3 3.627l0.283 0.545z" fill="#006837"/>
  </g>
  <g transform="matrix(.35278 0 0 -.35278 364.36 154.94)">
   <path d="m0 0c-4.881 0-8.851 3.964-8.851 8.837 0 4.872 3.97 8.836 8.851 8.836s8.851-3.964 8.851-8.836c0-4.873-3.97-8.837-8.851-8.837m0 19.639c-5.966 0-10.819-4.845-10.819-10.802 0-5.958 4.853-10.803 10.819-10.803s10.819 4.845 10.819 10.803c0 5.957-4.853 10.802-10.819 10.802" fill="#006837"/>
  </g>
 </g>
</svg>
