<?xml version="1.0" ?><svg style="enable-background:new 0 0 48 48;" version="1.1" viewBox="0 0 48 48" xml:space="preserve" xmlns="http://www.w3.org/2000/svg" xmlns:xlink="http://www.w3.org/1999/xlink"><g id="Icons"><g><path d="M20.41435,25.37677l-0.1193,1.4134l-5.3871,1.4602c-2.9206,0.7915-5.2234,2.6858-6.2141,5.1121    l-1.4444,3.5367c0,0,16.0547,6.1395,33.5011,0.0282l-1.4444-3.5366c-0.9908-2.4262-3.2935-4.3207-6.2141-5.1122l-5.4978-1.4881    l-0.1816-1.4137" style="fill:#A67358;"/><path d="M27.65095,27.00547c0,3.8489-7.3559,3.8114-7.3559-0.0324v-2.3939l7.3559-0.1017V27.00547z" style="fill:#DDBEA8;"/><path d="M18.53805,20.12397c0,0-2.6434-4.0822-2.5665-6.6491c0.077-2.567,1.5649-2.0878,1.9226-1.9638    c0,0,1.7096-2.2733,5.4937-2.9249s6.8693,0.3362,6.8693,0.3362s-0.9816,1.2535-0.5467,2.2477    c0.4349,0.9941,2.0987,2.3035,1.1063,6.069l-1.9294,3.0419l-0.1062-4.3581l-0.0236-1.3571l-4.7846,0.177l-5.4893-0.8265    l1.1637,2.3606L18.53805,20.12397z" style="fill:#464747;"/><path d="M16.94355,17.15637c0,0-0.8491,0.6307-0.8833,1.8167c-0.0343,1.186,0.4726,2.4535,1.9176,2.5718    c0,0,0.5023,2.3572,2.3172,3.8319c1.8149,1.4747,3.8598,1.4134,3.8598,1.4134s4.6383-0.8014,5.6501-5.1762    c0,0,1.9033-0.2354,2.0812-1.7831c0.1778-1.5477-1.0694-2.5918-1.0694-2.5918l-1.4977,2.3207l-0.1616-3.575l0.2859-2.0685    l-5.4434,0.2915l-5.7275-0.4363l0.5285,2.2102l-0.2924,3.6851L16.94355,17.15637z" style="fill:#F9D9C0;"/></g></g></svg>