<?xml version="1.0" encoding="UTF-8"?>
<!-- Created with Inkscape (http://www.inkscape.org/) -->
<svg width="123.3mm" height="148.88mm" version="1.1" viewBox="0 0 123.3 148.88" xmlns="http://www.w3.org/2000/svg" xmlns:cc="http://creativecommons.org/ns#" xmlns:dc="http://purl.org/dc/elements/1.1/" xmlns:rdf="http://www.w3.org/1999/02/22-rdf-syntax-ns#">
 <metadata>
  <rdf:RDF>
   <cc:Work rdf:about="">
    <dc:format>image/svg+xml</dc:format>
    <dc:type rdf:resource="http://purl.org/dc/dcmitype/StillImage"/>
    <dc:title/>
   </cc:Work>
  </rdf:RDF>
 </metadata>
 <g transform="translate(104.74 -72.88)">
  <path d="m18.559 217.53h-123.3v4.2334h123.3z" fill="#333"/>
  <g fill="#006837">
   <path d="m-63.92 81.624h-0.36795c-0.0021-1.1934 0.22296-2.3742 0.66217-3.4685 1.2764-3.2015 4.1857-5.2747 7.403-5.2747v0.3986c-3.0681 0-5.8427 1.9784-7.0683 5.0274-0.41874 1.0467-0.63288 2.1763-0.629 3.3172"/>
   <path d="m-64.288 84.111h0.36795v5.3503h-0.36795z"/>
   <path d="m-56.219 74.276h23.89c3.7454 0 6.7818 3.2914 6.7818 7.3515v7.8303c0 4.0601-3.0364 7.3515-6.7818 7.3515h-23.89c-3.7454 0-6.7818-3.2914-6.7818-7.3515v-7.8303c0-4.0601 3.0364-7.3515 6.7818-7.3515"/>
   <path d="m-39.971 95.131c2.3206 5.9365 8.6353 8.2328 12.298 8.7471-3.593-5.4179-3.435-10.182-3.435-10.182z"/>
  </g>
  <g>
   <path d="m-51.387 80.599-3.277-0.865-2.328 2.6434 0.94544 3.508 3.2805 0.8653 2.328-2.6433z" fill="#e0e0e0"/>
   <path d="m-52.534 80.296-3.2805-0.865-2.328 2.6434 0.94897 3.508 3.2766 0.8653 2.328-2.6433z" fill="#fff"/>
   <path d="m-33.303 86.435-11.618-3.0618c-0.47131-2.928-3.0434-4.8877-5.7446-4.3762-0.86501 0.1634-1.6746 0.5733-2.3463 1.1868l3.8876 1.0244 0.94509 3.5084-2.328 2.6473-3.8985-1.0446c1.041 2.7499 3.9416 4.0643 6.4784 2.9358 0.82479-0.3669 1.543-0.968 2.0796-1.7395l11.618 3.0617c1.0516 0.2731 2.1093-0.4247 2.3686-1.5628 0.26035-1.1412-0.38241-2.2955-1.4351-2.5777-0.0021-6.88e-4 -5e-3 0-7e-3 0" fill="#fff"/>
   <path d="m-33.822 87.113c0.70697 0 1.2799 0.6212 1.2799 1.3875 0 0.7662-0.57291 1.3874-1.2799 1.3874-0.70697 0-1.2799-0.6212-1.2799-1.3874 0-0.7663 0.57291-1.3875 1.2799-1.3875" fill="#0f4b1a"/>
   <path d="m-25.444 196.26h3.4939v9.5723h-3.4939z" fill="#666"/>
  </g>
  <g fill="#263238">
   <path d="m-21.259 202.54h-4.8768l-0.33831 9.2174c-0.0363 0.9613 0.65299 1.7727 1.5399 1.8125h0.0674 2.3573c0.88794 0 1.6062-0.7825 1.6051-1.7449 0-0.023-7.94e-4 -0.046-0.0011-0.069z"/>
   <path d="m-11.557 215.08c-0.20884-8e-4 -0.40322-0.1147-0.51858-0.303-0.98284-1.6256-2.6568-2.6035-4.4499-2.5993h-14.343c-1.7932 0-3.4671 0.9737-4.4499 2.5993-0.19826 0.3037-0.58632 0.3757-0.86642 0.1605-0.26705-0.205-0.34184-0.5997-0.17075-0.9021 1.2167-1.9974 3.2794-3.1961 5.4871-3.1894h14.343c2.2101-0.012 4.2774 1.1839 5.498 3.1817 0.18909 0.3104 0.10971 0.7285-0.17674 0.9331-0.1016 0.073-0.22049 0.1111-0.34184 0.1114z"/>
   <path d="m-17.809 196.93h-11.769c-1.312 5.3e-4 -2.443-0.9991-2.7069-2.3922l-0.36759-1.9533h17.932l-0.36794 1.9533c-0.26459 1.3991-1.4041 2.4003-2.7213 2.3922"/>
   <path d="m-49.449 191.77h14.108c11.054-0.038 20.405-8.8678 21.956-20.731l3.8689-29.534h24.928l-3.8689 29.534c-1.5515 11.864-10.903 20.694-21.956 20.731z"/>
   <path d="m-7.7176 143.74-3.6188 27.605c-0.97932 7.4086-4.8094 14.021-10.54 18.196h11.464c10.017-0.061 18.483-8.0613 19.907-18.81l3.5341-26.979zm-41.731 50.274c-1.1423 0.052-2.1075-0.9095-2.1558-2.1481-0.0483-1.2386 0.83891-2.285 1.9816-2.3372h0.17427 14.148c9.9998-0.088 18.44-8.0828 19.86-18.814l3.8693-29.534c0.14605-1.1056 1.0181-1.9272 2.0482-1.9297h24.928c1.1437 0 2.0698 1.0065 2.069 2.2465 0 0.1044-7e-3 0.2092-0.0205 0.3129l-3.8689 29.535c-1.6919 12.921-12.011 22.669-24.004 22.669z"/>
  </g>
  <g transform="matrix(.35278 0 0 -.35278 -24.525 194.01)">
   <path d="m0 0c-3.239-0.148-5.975 2.578-6.111 6.089-0.137 3.511 2.378 6.477 5.616 6.625 0.165 7e-3 0.33 7e-3 0.495 0h40.001c28.394 0.174 52.394 22.85 56.43 53.319l10.968 83.719c0.33 3.496 3.211 6.039 6.436 5.681s5.571-3.482 5.241-6.977c-0.015-0.164-0.037-0.328-0.064-0.49l-10.967-83.719c-4.796-36.627-34.048-64.258-68.044-64.258z" fill="#fff"/>
  </g>
  <g fill="#263238">
   <path d="m-34.024 215.02c0-1.0657-0.79692-1.9297-1.7801-1.9297-0.98284 0-1.7798 0.864-1.7798 1.9297s0.79692 1.9297 1.7798 1.9297c0.9832 0 1.7801-0.864 1.7801-1.9297"/>
   <path d="m-9.8102 215.02c0-1.0657-0.79692-1.9297-1.7801-1.9297-0.98284 0-1.7798 0.864-1.7798 1.9297s0.79692 1.9297 1.7798 1.9297c0.9832 0 1.7801-0.864 1.7801-1.9297"/>
   <path d="m-11.557 215.08c-0.20884-8e-4 -0.40322-0.1147-0.51858-0.303-0.98284-1.6256-2.6568-2.6035-4.4499-2.5993h-14.343c-1.7932 0-3.4671 0.9737-4.4499 2.5993-0.19826 0.3037-0.58632 0.3757-0.86642 0.1605-0.26705-0.205-0.34184-0.5997-0.17075-0.9021 1.2167-1.9974 3.2794-3.1961 5.4871-3.1894h14.343c2.2101-0.012 4.2774 1.1839 5.498 3.1817 0.18909 0.3104 0.10971 0.7285-0.17674 0.9331-0.1016 0.073-0.22049 0.1111-0.34184 0.1114z"/>
   <path d="m-17.625 216.22c-0.26917 0-0.50729-0.1898-0.59196-0.4664-0.44873-1.4792-1.1917-2.4398-1.8941-2.4398h-7.1716c-0.70238 0-1.4453 0.9606-1.8941 2.4398-0.11959 0.3489-0.47731 0.5264-0.79904 0.3969-0.30409-0.1224-0.4699-0.4773-0.38135-0.8156 0.63994-2.1089 1.7872-3.3648 3.0745-3.3648h7.1716c1.2869 0 2.4345 1.2559 3.0745 3.3648 0.10619 0.3535-0.0713 0.7334-0.39722 0.8491-0.0614 0.024-0.12595 0.036-0.19121 0.036"/>
   <path d="m-27.989 216.16c0-1.0657-0.79692-1.9297-1.7801-1.9297-0.98284 0-1.7798 0.864-1.7798 1.9297s0.79692 1.9297 1.7798 1.9297c0.9832 0 1.7801-0.864 1.7801-1.9297"/>
   <path d="m-15.845 216.16c0-1.0657-0.79692-1.9297-1.7801-1.9297-0.98284 0-1.7798 0.864-1.7798 1.9297s0.79692 1.9297 1.7798 1.9297c0.9832 0 1.7801-0.864 1.7801-1.9297"/>
  </g>
  <path d="m-62.008 187.91 6.2632 2.9464-3.5895 4.541-5.237-2.46z" fill="#ffb573"/>
  <g transform="matrix(.35278 0 0 -.35278 -62.004 187.91)">
   <path d="m0 0 17.754-8.363-5.703-7.21-16.127 7.583z" fill="#1a1a1a"/>
  </g>
  <g fill="#263238">
   <path d="m-58.444 197.76-0.70626-0.1753c-0.42122-0.1041-0.76729-0.4283-0.92287-0.8654l-0.45261 0.2275c-0.26106 0.1341-0.55633 0.169-0.8382 0.1l-9.6615-2.3922c0.0258-0.9408 0.79058-1.9931 0.79058-1.9931s4.2993 0.7972 5.5425-0.3151c0.0998-0.076 0.23142-0.084 0.33831-0.02 0.77964 0.3986 3.8541 1.8379 5.8254 1.6344 0.21661-0.018 0.40605 0.15701 0.42298 0.39191 3e-3 0.041 7.93e-4 0.082-7e-3 0.12239-0.18345 1.0848-0.29387 2.1827-0.33091 3.2851"/>
   <path d="m-65.2 190.54c-0.0409 0-0.0794 0.023-0.10654 0.056-0.0494 0.046-0.0765 0.1133-0.0737 0.1835-0.01831 0.3986 0.44873 1.0724 0.76129 1.4711-0.02191-0.658-0.25364-1.547-0.52211-1.6944-0.01831-0.01-0.0385-0.015-0.0589-0.016m0.67663 2.1093c-0.0279-5.3e-4 -0.0547-0.013-0.0734-0.036-0.0406-0.048-1.0224-1.1959-0.99307-1.8457 3e-3 -0.1316 0.0565-0.2558 0.14711-0.3429 0.10372-0.1125 0.26282-0.1401 0.39335-0.068 0.42298 0.2314 0.68791 1.5109 0.63253 2.1928-5e-3 0.043-0.0321 0.08-0.0699 0.096z"/>
   <path d="m-66.193 191.88c-0.0628 0-0.12559 0.01-0.1838 0.036-0.0367 0.024-0.0773 0.06-0.0663 0.1711 8e-3 0.068 0.0409 0.1305 0.0921 0.1714 0.2794 0.2434 1.0664 0.2392 1.5483 0.1993-0.41311-0.3122-0.89041-0.5108-1.3903-0.5778m0.9084 0.8213c-0.41028 0.037-0.82162-0.056-1.1843-0.2671-0.0967-0.078-0.1584-0.1968-0.16898-0.327-0.0296-0.1616 0.0441-0.3249 0.17991-0.3986 0.41946-0.2315 1.53 0.291 2.0045 0.7415 0.043 0.04 0.048 0.1108 0.01061 0.1573-0.01659 0.021-0.0402 0.035-0.0656 0.038-0.25752 0.034-0.51682 0.053-0.77611 0.056"/>
  </g>
  <g>
   <path d="m-5.7574 166.55-2.6956 6.0879c-3.9575 8.9859-13.707 13.503-21.493 9.967-4.5459-2.0651-9.507-6.4308-12.872-8.4282-2.8871 6.8612-8.2931 14.428-12.43 19.695l-8.3707-4.565c3.126-7.7784 7.9918-19.934 11.081-27.812 1.1222-2.8504 3.6498-4.754 6.5059-4.8997 13.916-0.4068 40.275 9.955 40.275 9.955" fill="#006837"/>
   <path d="m-14.4 103.53c-1.5706-0.562-3.3613 0.5182-3.3835 4.3215-0.0222 3.8037 3.1665 5.841 4.5124 0.9254 0.80927-2.9665 0.037-4.8363-1.1289-5.2469" fill="#3a210c"/>
   <path d="m-46.437 209.59 6.8185-0.3468-1.372 5.7887-5.7002 0.295z" fill="#ffb573"/>
  </g>
  <g transform="matrix(.35278 0 0 -.35278 -46.433 209.59)">
   <path d="m0 0 19.328 0.983-2.179-9.199-17.556-0.904z" fill="#1a1a1a"/>
  </g>
  <g fill="#263238">
   <path d="m-39.945 218.09h-0.73554c-0.43215-8e-4 -0.83503-0.2357-1.0739-0.6258l-0.3937 0.3348c-0.2286 0.1912-0.50906 0.2949-0.79798 0.2949h-9.9004c-0.16898-0.9208 0.36795-2.1248 0.36795-2.1248s4.3543-0.2512 5.3361-1.6348c0.0723-0.1079 0.19508-0.1619 0.31644-0.1393 0.84208 0.1912 4.1374 0.8689 6.0166 0.1954 0.20532-0.071 0.4244 0.053 0.48931 0.2752 0.01159 0.04 0.01799 0.082 0.01831 0.1235 0.0452 1.108 0.1644 2.2115 0.35666 3.3009"/>
   <path d="m-47.989 212.66c-0.0494 0.01-0.0931 0.037-0.11783 0.084-0.037 0.058-0.049 0.1309-0.0328 0.1997 0.0625 0.3986 0.65441 0.9366 1.0442 1.2516-0.15452-0.6378-0.56621-1.4471-0.8569-1.5268zm1.0481 1.9018c-0.02119 0-0.042-0.01-0.0589-0.02-0.0515-0.036-1.2393-0.90491-1.3458-1.5628-0.024-0.12769 3e-3 -0.26099 0.0734-0.36649 0.0773-0.13511 0.22542-0.20111 0.36795-0.1637 0.45579 0.12769 0.97825 1.3077 1.0629 1.9935 4e-3 0.045-0.0159 0.089-0.0515 0.11149-0.01519 0.01-0.0317 0.011-0.048 0.01"/>
   <path d="m-48.415 214.18c-0.15628-0.014-0.31256 0.024-0.44873 0.1076-0.0332 0.032-0.0624 0.076-0.0332 0.1834 0.0226 0.065 0.0691 0.1175 0.12876 0.1436 0.32385 0.1715 1.0851-0.02 1.5483-0.1753-0.38312-0.1602-0.78846-0.248-1.1987-0.2593zm0 0.7257c-0.15381 0.01-0.30692-0.023-0.44873-0.088-0.10972-0.054-0.19403-0.1548-0.23178-0.279-0.0543-0.1485-0.0159-0.3182 0.0956-0.4227 0.36795-0.3266 1.5522-0.084 2.1075 0.2396 0.0346 0.023 0.0557 0.064 0.055 0.1076-3e-3 0.044-0.0303 0.082-0.0698 0.096-0.48436 0.1944-0.99236 0.3111-1.5078 0.3468"/>
  </g>
  <path d="m-3.1044 164.14-0.043 6.4308c-0.0681 9.4844-7.2873 17.94-15.906 18.666-5.0324 0.3986-11.833 0.5422-15.749 0.4543-0.56938 6.6421-2.4342 14.468-4.2954 20.137l-8.4755-0.6576c-0.2219-8.0493-0.54786-19.463-0.81985-27.034-0.10725-2.9503 1.5356-5.8529 4.0626-7.2401 12.689-6.9691 41.226-10.756 41.226-10.756" fill="#006837"/>
  <g transform="matrix(.35278 0 0 -.35278 -40.718 209.91)">
   <path d="m0 0c-0.055-0.011-0.112-0.011-0.167 0-0.308 0.103-0.48 0.457-0.385 0.791 3.732 13.301 10.425 54.822 10.748 73.887 0.01 0.181 0.085 0.352 0.208 0.474 0.128 0.116 0.294 0.169 0.459 0.147 36.06-5.198 60.465-3.39 70.629 5.109 17.817 15.008 17.556 39.305 13.042 51.985-0.118 0.328 0.031 0.697 0.334 0.825 0.302 0.128 0.643-0.034 0.761-0.362 4.639-13.019 4.899-37.994-13.417-53.432-10.488-8.826-34.319-10.668-70.89-5.458-0.449-19.449-7.089-60.326-10.79-73.514-0.068-0.26-0.283-0.443-0.532-0.452" fill="#1a1a1a"/>
  </g>
  <g transform="matrix(.35278 0 0 -.35278 -43.156 174.97)">
   <path d="m0 0c-4.236-9.203-9.144-18.023-14.678-26.377 0.125-3.763 0.26-7.753 0.396-11.9 8.736 14.951 14.292 38.299 14.292 38.299z" fill="#1a1a1a"/>
  </g>
  <g>
   <path d="m-26.642 135.98-0.29175 0.2131-0.23601 0.1644-0.45896 0.3023c-0.3048 0.1983-0.6096 0.3736-0.91087 0.5454-0.60643 0.3514-1.2291 0.6537-1.8616 0.9416-1.2845 0.5799-2.613 1.0227-3.9691 1.3222-0.6918 0.1531-1.403 0.2614-2.1241 0.34-0.73695 0.064-1.4771 0.078-2.2154 0.041-0.76482-0.035-1.5265-0.1362-2.2779-0.3027-0.77258-0.1785-1.5311-0.4283-2.268-0.7468l-0.30162-0.127c-0.45614-0.1912-0.86783-0.4992-1.203-0.9003-0.71367-0.8552-1.2591-1.874-1.5995-2.9884-0.26881-0.8823-0.43109-1.8024-0.48154-2.7344-0.0808-1.5046 0.0296-3.0141 0.32773-4.4827 0.25965-1.2997 0.61278-2.5725 1.0552-3.8065 0.2166-0.6011 0.45226-1.1878 0.70167-1.7632l0.38982-0.859c0.14429-0.2875 0.27517-0.5454 0.44239-0.8703 0.59972-1.1515 1.905-1.5307 2.915-0.8474 0.65546 0.4435 1.0527 1.2527 1.0411 2.1213v0.3732c0 0.2279-0.0328 0.5306-0.0459 0.7994l-0.0557 0.8333c-0.0392 0.5528-0.0621 1.1204-0.085 1.651-0.02291 0.5305-0.0328 1.0833-0.0363 1.6062-3e-3 0.5231 0 1.0421 0.0296 1.5353 0.02151 0.8703 0.13935 1.7335 0.35067 2.5699 0.06 0.2435 0.16016 0.4717 0.29492 0.6724 0.0917 0.1083 0.13441 0.056 0.0854-0.067l-1.5042-1.0273c0.73907 0.1524 1.4926 0.1962 2.2416 0.1305 0.41063-0.034 0.81879-0.096 1.2227-0.1866 0.41628-0.082 0.84208-0.18311 1.2714-0.3175 0.42969-0.1344 0.85902-0.2914 1.2947-0.4558 0.43603-0.16441 0.86854-0.3736 1.3113-0.5676 0.44239-0.1944 0.86184-0.42971 1.2912-0.6537 0.2099-0.1122 0.41945-0.2318 0.61948-0.3475l0.29492-0.1721 0.13758-0.078c0.0296-0.018 0.0984-0.063 0.0755-0.041 1.9823-1.4266 4.6038-0.7517 5.8554 1.5071 1.2517 2.2592 0.6597 5.2469-1.3226 6.6735" fill="#ffb573"/>
   <path d="m-43.903 121.69 2.7435 0.1397c2.7474-0.9691 0.98566-4.5812 0.98566-4.5812l-0.20214-2.105c-0.12453-0.7585-0.73131-1.312-1.4418-1.3155l-1.9159-0.1157c-0.87559-0.052-1.633 0.5821-1.6771 1.4033l-0.10689 1.8419c-0.0296 0.5369 0.0624 1.0735 0.26846 1.5631z" fill="#ffb573"/>
   <path d="m-20.59 123.73c-1.1585-1.5752-4.9135-1.2058-7.0834 1.2841-0.89712-0.037-4.4132 3.1916-7.1053 3.882-2.6921 0.6907-4.6337 3.9941-3.8837 5.8568 1.3868 3.4378 2.328 5.0839 4.8327 5.3601 2.5044 0.2762 5.7997-1.3698 8.4589-3.3891 2.6589-2.0197 6.8255-10.198 4.7808-12.994" fill="#e0e0e0"/>
   <path d="m-35.933 128.44c-2.0927-1.3716-4.1483 0.9292-4.1483 3.8223 0 2.8928 0.66534 5.3587 1.6842 7.056 1.0188 1.6975 2.8173 1.5554 4.4944 1.4767 1.4488-0.071 2.1625-0.6033 1.4711-1.9449-0.69145-1.3416-3.2403-3.2826-3.6191-7.0524-0.20955-1.9074 1.0851-2.7245 0.11783-3.3577" fill="#fafafa"/>
   <path d="m-36.481 156.59c-0.43744 0.5024-0.75283 2.4479 0.13617 5.3622 0.61313 2.0214 3.0261 1.0125 3.0261 1.0125s0.42298 3.6643 3.4272 4.4496c4.9512 1.2915 23.627 0.9447 26.799-1.7942-9.9526-0.1154-33.389-9.0301-33.389-9.0301" fill="#fafafa"/>
   <path d="m-19.986 121.28c4.7964 0.031 9.58 0.5563 14.292 1.5709 3.1563 0.7476 5.1802 4.252 4.5201 7.8278-0.0222 0.1196-0.0473 0.2385-0.0751 0.357-3.5193 15.186-1.5346 31.863-1.8126 34.904 0 0-28.13 4.5889-32.441-4.8839 5.8074-11.718 4.0651-17.717 7.433-32.771 0.89041-3.979 4.4626-7.0288 8.0839-7.0048" fill="#263238"/>
  </g>
  <g transform="matrix(.35278 0 0 -.35278 -19.986 121.28)">
   <path d="m0 0c13.596-0.087 27.156-1.577 40.513-4.453 8.947-2.119 14.684-12.053 12.813-22.189-0.063-0.339-0.134-0.676-0.213-1.012-9.976-43.046-4.35-90.319-5.138-98.941 0 0-79.739-13.008-91.96 13.844 10.034 35.462 11.523 50.222 21.07 92.895 2.524 11.279 12.65 19.924 22.915 19.856" fill="#fff"/>
  </g>
  <g transform="matrix(.35278 0 0 -.35278 -9.4572 121.98)">
   <path d="m0 0-0.146 0.068-0.459 0.169-0.125-0.101c-6.995 0.904-14.282 1.491-21.236 1.729-1.699 0.068-3.377 0.101-5.024 0.124-2.177-1.328-3.852-3.445-4.733-5.978-2.085-5.719-0.605-12.093 4.097-17.043l0.385-0.406 0.553 0.056c10.216 1.074 29.315 9.945 30.118 16.782 0.135 1.153-0.136 3.3-3.43 4.6" fill="#fafafa"/>
  </g>
  <g>
   <path d="m-0.36906 133.12 0.24589 0.5581 0.21872 0.5105c0.14499 0.3386 0.2727 0.6776 0.40746 1.0167 0.26599 0.6734 0.50165 1.3553 0.74083 2.0411 0.45791 1.3713 0.88547 2.7626 1.2421 4.19 0.18521 0.7098 0.3369 1.4273 0.51858 2.153 0.18204 0.7253 0.29316 1.4591 0.42087 2.2045 0.2667 1.5035 0.46002 3.0237 0.57926 4.5529l0.0335 0.3987c0.0469 0.5891-0.0127 1.1828-0.17498 1.7424-0.25752 0.8752-0.65052 1.6866-1.1582 2.3921-0.43145 0.5991-0.93628 1.118-1.4982 1.5389-0.8449 0.624-1.7727 1.0742-2.7443 1.3313-1.457 0.381-2.952 0.5151-4.4408 0.399-1.3197-0.091-2.6317-0.2963-3.9261-0.6142-0.63288-0.1474-1.2559-0.3309-1.8754-0.5263-0.61947-0.1951-1.2121-0.3986-1.8651-0.6858-1.1426-0.4801-1.7399-1.9664-1.3342-3.3189 0.28787-0.9599 1.0224-1.6323 1.8796-1.7202h0.12806l1.6835-0.1675c0.57573-0.048 1.1448-0.1154 1.7067-0.1831 0.56233-0.068 1.1215-0.144 1.6669-0.2276 0.54539-0.084 1.0774-0.1831 1.5924-0.303 0.90946-0.1729 1.7981-0.4756 2.6465-0.9007 0.30974-0.1795 0.52846-0.399 0.50835-0.4427-0.0201-0.044-0.0808 0-0.18521 0.1037-0.12876 0.1489-0.23142 0.3263-0.30303 0.5221l-0.14147 2.129c-0.25259-1.1641-0.51858-2.3283-0.84173-3.5044-0.15804-0.586-0.33655-1.196-0.51505-1.7622-0.17851-0.5658-0.33655-1.1959-0.5454-1.766-0.39052-1.1723-0.77787-2.3523-1.1987-3.5203l-0.63288-1.7424-0.61277-1.6383-0.0776-0.2156c-0.96203-2.6116 0.0462-5.6522 2.2518-6.7913 2.0842-1.0763 4.517-0.074 5.5866 2.3022z" fill="#ffb573"/>
   <path d="m-26.779 147.8h5.4871c0.28045 0 0.50764 0.2462 0.50764 0.5503v7.6786c0 0.3037-0.22719 0.55-0.50764 0.55h-5.4871c-0.28046 0-0.50765-0.2463-0.50765-0.55v-7.6786c0-0.3041 0.22719-0.5503 0.50765-0.5503" fill="#0f4b1a"/>
   <path d="m-21.281 148.71h-0.0441c-1.7822-0.065-3.2759 1.4482-3.3362 3.3803-0.06 1.9322 1.336 3.5511 3.1182 3.6163h0.21801 0.0441c1.7822 0.066 3.2759-1.4478 3.3362-3.3803 0.06-1.9321-1.336-3.551-3.1182-3.6163h-0.21802m-0.0109 0.7973c1.3698-0.057 2.5234 1.1003 2.576 2.5855 0.0529 1.4852-1.0149 2.7354-2.3848 2.7926h-0.19121-0.0332c-1.3702 0.057-2.5234-1.1003-2.576-2.5855-0.0529-1.4852 1.0149-2.7355 2.3848-2.7926h0.1912 0.0441" fill="#0f4b1a"/>
   <path d="m-12.679 152.68-0.02191 1.8817c-1.0559 2.9143-4.2774 0.7973-4.2774 0.7973l-1.9272-0.3426c-0.69074-0.1799-1.1645-0.8696-1.1254-1.6386v-2.081c-0.0444-0.8905 0.5708-1.6584 1.3903-1.7343h1.7286c0.49636 0 0.9839 0.1404 1.4196 0.3983l1.9456 1.1243c0.53834 0.3175 0.87171 0.9306 0.86783 1.5949" fill="#ffb573"/>
   <path d="m-4.141 124.42c1.6535-0.3986 3.8301 2.6592 3.7857 6.2114 0.59337 0.6258 1.6214 5.8448 2.9365 8.3721 1.3148 2.5276 0.63818 6.5387-0.90664 7.4514-2.8727 1.6866-4.4302 2.2923-6.1923 0.6738-1.7618-1.6186-3.7853-5.3859-4.0792-8.9624-0.41486-5.2426 1.5226-13.057 4.4559-13.746" fill="#e0e0e0"/>
   <path d="m-6.418 145.16c-1.0075 2.3767 1.0933 4.4125 3.5313 4.1942 2.4377-0.2184 4.4877-1.1642 5.8543-2.406 1.3667-1.2421 1.1127-3.1679 0.91793-4.9787-0.1651-1.5607-0.67381-2.286-1.7533-1.4277-1.0795 0.8586-2.5435 3.7729-5.7097 4.4774-1.5875 0.3761-2.3767-0.9549-2.8406 0.1408" fill="#fafafa"/>
   <path d="m-19.788 123.21c0.44379-0.8047 1.1257-1.4228 1.9346-1.7544 0.33938-0.8071 0.41205-1.7166 0.20567-2.5752l9.0914-2.4878c-0.901 3.1496-1.6073 5.6374-0.59937 7.2598-1.8168 1.0446-5.1488 2.9146-8.6427 2.5756s-2.6331-1.7145-1.9897-3.018" fill="#ffb573"/>
  </g>
  <g transform="matrix(.35278 0 0 -.35278 -17.592 119.18)">
   <path d="m0 0 19.036-0.056c-6.317-6.476-15.46-8.465-19.401-5.402 0.544 1.757 0.67 3.634 0.365 5.458" fill="#1a1a1a"/>
  </g>
  <g>
   <path d="m-6.5407 111.58c-1.2947 4.4295-2.2617 7.4034-5.1082 8.6515-5.6529 2.4716-7.9587-0.7577-7.911-5.5259 0.0441-4.2936 2.1551-10.812 6.6199-11.458 3.2332-0.4695 6.2054 1.9911 6.6386 5.496 0.11783 0.9528 0.036 1.9223-0.23918 2.8363" fill="#ffb573"/>
   <path d="m-9.2439 115.06c-1.6806-0.7973-1.1733-1.3515-1.1733-1.3515s1.361-1.6425 1.578-2.5996c0.21695-0.9567-1.1035-3.0018-0.63641-4.0746 0.46707-1.0721 5.4028-1.5945 7.4951 1.1444-0.49036 0.1171-0.99095 0.1761-1.493 0.1753 0.8636 1.0323 1.0548 2.5326 0.48189 3.7797-0.96379 2.2049-4.4612 3.7994-6.2523 2.9263" fill="#3a210c"/>
   <path d="m-18.383 115.53 4.3434 0.072s-0.61419 1.1363-2.4384 1.3116c-1.8242 0.1754-1.905-1.3832-1.905-1.3832" fill="#263238"/>
   <path d="m-18.295 115.53c0.13617 0.303 0.54786 0.7574 1.7949 0.6378 0.67981-0.046 1.3441-0.2416 1.9526-0.5739-0.7687-0.01-2.3096-0.036-3.7476-0.064" fill="#fff"/>
   <path d="m-6.0001 116.24c-0.67733 0.9024-1.6577 1.476-2.7252 1.5946-1.4231 0.1474-1.8941-1.2997-1.2982-2.6113 0.5334-1.1959 1.9198-2.6832 3.2473-2.2207 1.3278 0.4625 1.5924 2.117 0.77611 3.2374" fill="#ffb573"/>
   <path d="m-13.345 110.91c-0.0847 0.3669-0.33091 0.6138-0.55174 0.5542-0.22049-0.06-0.33091-0.3986-0.24624-0.7775 0.0847-0.3789 0.3309-0.6138 0.55174-0.55 0.22049 0.063 0.33091 0.4106 0.24624 0.7733" fill="#263238"/>
   <path d="m-16.938 109.99c-0.0847 0.3669-0.33091 0.6138-0.55174 0.5503-0.22049-0.064-0.33091-0.399-0.24624-0.7736 0.0847-0.3747 0.3309-0.6142 0.55174-0.55 0.22049 0.063 0.33091 0.4064 0.24624 0.7733" fill="#263238"/>
   <path d="m-15.842 110.6-0.70238 3.0819s-1.1476 0-1.6662-0.7137c0.74295-1.487 2.3686-2.3682 2.3686-2.3682" fill="#ed893e"/>
   <path d="m-11.951 110.01c0.0325 0.01 0.0667 0.01 0.0991 0 0.10407-0.045 0.15452-0.1729 0.11289-0.285-7.94e-4 0-0.0011 0-0.0021-0.01-0.24271-0.6675-0.76694-1.1677-1.4086-1.3438-0.11042-0.029-0.2219 0.044-0.24871 0.1644-0.0268 0.1196 0.0409 0.2403 0.15134 0.2695h0.024c0.50412 0.1496 0.91334 0.549 1.1035 1.0767 0.0325 0.069 0.097 0.1154 0.16898 0.1196" fill="#3a210c"/>
   <path d="m-18.626 108.35c0.0667 0.018 0.13688 0 0.18768-0.052 0.369-0.3972 0.89111-0.5792 1.4048-0.4903 0.10654 0.029 0.21449-0.041 0.2413-0.1559 2.64e-4 0 0.0011 0 0.0011-0.01 0.0254-0.1188-0.0416-0.2377-0.15064-0.267-0.64593-0.127-1.3084 0.095-1.7762 0.5937-0.0801 0.087-0.0801 0.2279 0 0.315 0.02471 0.03 0.0564 0.052 0.0917 0.064" fill="#3a210c"/>
   <path d="m-40.471 122.06c2.0045-1.3476 1.7985-3.6361 2.1516-5.4578 0.0624-0.3112-0.59231-0.7656-0.97825-0.375-0.51647 0.4424-0.84526 1.0925-0.91228 1.8023-0.73555 0.1196-2.6074 1.2199-2.3132 3.4565 0.5962 0.4569 1.3265 0.6611 2.0521 0.574" fill="#ffb573"/>
   <path d="m-18.913 129.08c4.7808-0.5066 13.059-5.1827 9.3158-6.6738-2.3576 2.0291-6.3186 2.8384-8.183 2.8426-0.69145-0.7217-0.9084-2.7351-0.0737-3.7916-1.9526-0.1792-4.4058 4.0947-1.059 7.6228" fill="#fafafa"/>
   <path d="m-17.78 125.25c1.736-1.2958 7.2341-4.4415 8.775-4.4136 0.18098 0.6466 0.20991 1.3317 0.0847 1.9935 0 0-2.0302 2.4081-8.8597 2.4201" fill="#e0e0e0"/>
   <path d="m-17.78 125.25s0.26846-4.0626-0.0698-4.9198c-0.57891 0.2444-0.99766 0.7997-1.1035 1.4633 0 0 0.36054 2.8346 1.1733 3.4565" fill="#e0e0e0"/>
   <path d="m-4.7387 106.92c-2.4899 0.3231-9.8672-0.4304-12.28-3.4445-2.4126-3.0142-0.65476-5.0592 1.9272-3.3172 0 0-1.7138-2.5276 1.0407-1.8937 2.6 0.5983 5.6783 5.4938 9.5878 5.2867 3.3285-0.1795 2.1844 3.0618-0.27587 3.3687" fill="#3a210c"/>
  </g>
  <g fill="#263238">
   <path d="m-5.9008 117.75c-1.1585 1.0164-2.6846 1.0523-3.4092 0.084-0.72461-0.9687-0.3676-2.5795 0.78352-3.5881 1.1511-1.0086 2.6846-1.0523 3.4092-0.084 0.72425 0.9687 0.37112 2.5714-0.78352 3.5881"/>
   <path d="m-15.492 119.31c-0.39123-0.1612-0.58773-0.6354-0.43921-1.0594 0.14852-0.424 0.58597-0.6371 0.9772-0.4762 0.32138 0.1323 0.52034 0.4829 0.48436 0.8537-0.1143 0.49-0.56762 0.7923-1.0224 0.6819"/>
   <path d="m-5.978 115.08c-0.13017 0-0.25224-0.067-0.33091-0.1796-0.13828-0.1958-0.10371-0.4759 0.0773-0.6258 0.93028-0.7694 1.4968-2.6832 1.4157-4.784-0.0515-1.3317-0.48154-4.6447-3.3098-6.6022-0.19297-0.1323-0.25047-0.4089-0.12876-0.6181 0.1217-0.2092 0.37711-0.2717 0.57008-0.1397 2.2285 1.5392 3.5782 4.2104 3.6996 7.324 0.0921 2.3918-0.58843 4.5607-1.7395 5.5136-0.0702 0.068-0.15981 0.1072-0.25365 0.1118"/>
   <path d="m-13.444 119.31c-0.60396-7.9e-4 -1.2072-0.045-1.8059-0.1316-0.11289-0.014-0.19367-0.1252-0.18062-0.2476h7.94e-4c0.01691-0.121 0.11924-0.2056 0.23143-0.1912 4.4132 0.6259 7.0503-1.3398 7.076-1.3596 0.0935-0.072 0.22261-0.048 0.28857 0.054 0.0663 0.1013 0.0441 0.2417-0.0494 0.3133-0.0956 0.075-2.0892 1.5667-5.5608 1.5667"/>
  </g>
  <g>
   <path d="m-26.474 152.52h-0.46708l0.11042-0.6417h0.4632zm1.1035-0.6417v-0.7017h-0.2981l0.15452-0.9052h-0.59232l-0.15063 0.9052h-0.47449l0.15452-0.9052h-0.60678l-0.10301 0.6181v3.2212h0.0773l0.15063-0.889h0.47096l-0.15099 0.889h0.59973l0.15063-0.889h0.61807v-0.7017h-0.52247l0.11042-0.6417z" fill="#fff"/>
   <path d="m-23.09 150.27v3.7835h-0.87524v-2.48c-0.12559 0.1203-0.26247 0.2258-0.40817 0.315-0.16051 0.091-0.32808 0.1669-0.50023 0.2272v-0.853c0.25082-0.084 0.48436-0.2191 0.68756-0.3986 0.16051-0.1658 0.2861-0.3669 0.36795-0.5902z" fill="#fff"/>
   <path d="m-96.902 156.59h105.31v3.1059h-105.31z" fill="#0f4b1a"/>
  </g>
  <g fill="#fff">
   <path d="m-96.902 156.59h105.31v3.1059h-105.31z"/>
   <path d="m-15.573 156.59h23.979v3.1059h-23.979z"/>
   <path d="m-15.577 159.69h-0.4191v-3.1055h0.4191z"/>
  </g>
  <path d="m6.6145 159.69 3.1775 57.821h-1.2615l-3.8135-55.755h-16.605l-3.8103 55.755h-1.2612l3.1736-57.821z" fill="#0f4b1a"/>
  <g transform="matrix(.35278 0 0 -.35278 6.6145 159.69)">
   <path d="m0 0 9.007-163.9h-3.576l-10.81 158.05h-47.069l-10.801-158.05h-3.575l8.996 163.9z" fill="#fff"/>
  </g>
  <path d="m-74.626 159.69 3.1775 57.821h-1.2615l-3.81-55.755h-16.608l-3.8104 55.755h-1.2612l3.1775-57.821z" fill="#0f4b1a"/>
  <g transform="matrix(.35278 0 0 -.35278 -74.626 159.69)">
   <path d="m0 0 9.007-163.9h-3.576l-10.8 158.05h-47.079l-10.801-158.05h-3.575l9.007 163.9z" fill="#fff"/>
  </g>
  <path d="m-49.29 148.54h-38.785l-3.5197-25.503h38.789z" fill="#333"/>
  <g transform="matrix(.35278 0 0 -.35278 -70.882 148.54)">
   <path d="m0 0h15.127l-3.618 33.316-4.67-14.036z" fill="#1a1a1a"/>
  </g>
  <g transform="matrix(.35278 0 0 -.35278 -49.29 148.54)">
   <path d="m0 0h-1.261l-9.967 72.293h1.262z" fill="#1a1a1a"/>
  </g>
  <path d="m-63.358 155.51h-10.555v1.0806h11.467z" fill="#0f4b1a"/>
  <g transform="matrix(.35278 0 0 -.35278 -63.358 155.51)">
   <path d="m0 0h-29.92v-3.063h32.505z" fill="#333"/>
  </g>
  <path d="m-72.545 141.01-0.14711 1.1762h-0.44132c-0.45156 7.9e-4 -0.83679 0.3545-0.91193 0.8371l-0.90841 6.0082c-0.0832 0.5454 0.25683 1.0604 0.75989 1.1507 0.049 0.01 0.0988 0.013 0.14852 0.013h0.36759v0.4823h-2.4455v-9.6679z" fill="#0f4b1a"/>
  <g transform="matrix(.35278 0 0 -.35278 -72.545 141.01)">
   <path d="m0 0-0.417-3.334h-1.251c-1.28-2e-3 -2.372-1.005-2.585-2.373l-2.575-17.031c-0.236-1.546 0.728-3.006 2.154-3.262 0.139-0.025 0.28-0.038 0.421-0.038h1.042v-1.367h-6.932v27.405z" fill="#1a1a1a"/>
  </g>
  <path d="m-70.728 143.35-0.91193 6.0043c-0.0723 0.4836-0.45649 0.8396-0.9084 0.841h-1.8796c-0.51153 0-0.92534-0.453-0.92358-1.0079 0-0.052 4e-3 -0.1048 0.01161-0.1563l0.91193-6.0081c0.0741-0.4833 0.46002-0.8379 0.91228-0.8372h1.8757c0.50976-0.01 0.92851 0.4347 0.93521 0.9871 7.93e-4 0.06-3e-3 0.1185-0.0123 0.1771zm-5.395-7.5551-3.1521 20.795h9.7349l3.1521-20.795z" fill="#333"/>
  <g transform="matrix(.35278 0 0 -.35278 -69.529 156.59)">
   <path d="m0 0-1.334 0.192 8.903 58.755h1.365z" fill="#1a1a1a"/>
  </g>
  <g transform="matrix(.35278 0 0 -.35278 -70.864 130.69)">
   <path d="m0 0h-1.595l-2.075 15.03h1.595z" fill="#1a1a1a"/>
  </g>
  <g transform="matrix(.35278 0 0 -.35278 -69.816 130.69)">
   <path d="m0 0h-1.605l-2.065 15.03h1.595z" fill="#1a1a1a"/>
  </g>
  <g transform="matrix(.35278 0 0 -.35278 -68.768 130.69)">
   <path d="m0 0h-1.605l-2.075 15.03h1.605z" fill="#1a1a1a"/>
  </g>
  <g transform="matrix(.35278 0 0 -.35278 -67.719 130.69)">
   <path d="m0 0h-1.605l-2.075 15.03h1.605z" fill="#1a1a1a"/>
  </g>
  <g transform="matrix(.35278 0 0 -.35278 -66.675 130.69)">
   <path d="m0 0h-1.595l-2.075 15.03h1.606z" fill="#1a1a1a"/>
  </g>
  <g transform="matrix(.35278 0 0 -.35278 -71.912 130.69)">
   <path d="m0 0h-1.595l-2.075 15.03h1.595z" fill="#1a1a1a"/>
  </g>
  <g transform="matrix(.35278 0 0 -.35278 -72.96 130.69)">
   <path d="m0 0h-1.595l-2.075 15.03h1.606z" fill="#1a1a1a"/>
  </g>
  <g transform="matrix(.35278 0 0 -.35278 -74.008 130.69)">
   <path d="m0 0h-1.595l-2.075 15.03h1.606z" fill="#1a1a1a"/>
  </g>
  <g transform="matrix(.35278 0 0 -.35278 -75.053 130.69)">
   <path d="m0 0h-1.605l-2.075 15.03h1.605z" fill="#1a1a1a"/>
  </g>
 </g>
</svg>
